<svg width="319" height="218" viewBox="0 0 319 218" fill="none" xmlns="http://www.w3.org/2000/svg">
<g clip-path="url(#clip0)">
<path d="M284.363 66.2975C269.232 66.2975 253.914 64.1764 238.698 59.9657C223.92 55.8761 209.205 49.8175 194.963 41.9581C172.534 29.5815 158.3 16.5363 156.174 14.5354C148.141 26.4471 135.94 35.8458 119.904 42.4726C106.98 47.8132 91.5503 51.3758 74.0425 53.0612C44.249 55.9302 18.4063 52.3109 18.1487 52.2738C18.0679 52.2623 17.9953 52.2212 17.9469 52.1595C17.8986 52.0979 17.8783 52.0208 17.8907 51.9452C17.9031 51.8697 17.947 51.8018 18.0129 51.7565C18.0788 51.7113 18.1612 51.6923 18.242 51.7039C18.4989 51.7409 44.2753 55.3494 73.9925 52.4865C101.381 49.848 137.817 41.0154 155.859 13.9206C155.884 13.8833 155.917 13.8519 155.957 13.8286C155.997 13.8053 156.042 13.7908 156.088 13.7863C156.135 13.7817 156.182 13.7872 156.226 13.8023C156.27 13.8173 156.31 13.8416 156.343 13.8733C156.488 14.0143 171.111 28.1293 195.292 41.4706C217.599 53.7774 252.836 67.9249 294.026 65.4294C294.107 65.4245 294.188 65.45 294.249 65.5005C294.31 65.5509 294.348 65.6222 294.353 65.6985C294.359 65.7748 294.331 65.8499 294.277 65.9074C294.223 65.9648 294.147 65.9999 294.066 66.0048C290.842 66.2001 287.608 66.2976 284.363 66.2975Z" fill="#CCCCCC"/>
<path d="M52.5679 67.1204C52.4108 67.1123 52.2602 67.0584 52.1374 66.9664C52.0145 66.8743 51.9256 66.7486 51.8829 66.6069L47.9214 54.1618C47.888 54.0566 47.8806 53.9457 47.8999 53.8375C47.9192 53.7292 47.9647 53.6266 48.0329 53.5373C48.101 53.448 48.1901 53.3744 48.2933 53.3222C48.3965 53.27 48.511 53.2405 48.6282 53.236H48.6283L56.6981 52.9254C56.8209 52.9207 56.9431 52.9435 57.0545 52.992C57.1659 53.0404 57.2633 53.1131 57.3386 53.2039C57.4139 53.2947 57.4649 53.401 57.4874 53.514C57.5098 53.627 57.503 53.7434 57.4676 53.8534L53.3591 66.6091C53.3133 66.7587 53.2162 66.8901 53.0826 66.9828C52.949 67.0755 52.7864 67.1244 52.6201 67.122C52.6026 67.1219 52.5851 67.1214 52.5679 67.1204Z" fill="#E6E6E6"/>
<path d="M91.4127 64.3876C91.2562 64.4033 91.0983 64.3728 90.9612 64.3005C90.8242 64.2281 90.7147 64.1175 90.6482 63.984L84.5959 52.2978C84.5448 52.1991 84.5184 52.0907 84.5188 51.981C84.5193 51.8713 84.5465 51.7631 84.5984 51.6647C84.6503 51.5663 84.7255 51.4803 84.8184 51.4132C84.9112 51.3462 85.0192 51.2998 85.1341 51.2777H85.1342L93.0453 49.7558C93.1656 49.7327 93.2901 49.7368 93.4084 49.7679C93.5267 49.7989 93.6354 49.856 93.7253 49.9342C93.8153 50.0125 93.8839 50.1098 93.9255 50.2179C93.9671 50.326 93.9804 50.4419 93.9644 50.5559L92.1055 63.7639C92.0861 63.9184 92.0128 64.0627 91.8969 64.1743C91.781 64.2859 91.629 64.3587 91.4644 64.3813C91.4472 64.3839 91.4298 64.386 91.4127 64.3876Z" fill="#E6E6E6"/>
<path d="M134.217 50.7022C134.072 50.7594 133.911 50.7726 133.758 50.7402C133.604 50.7078 133.465 50.6313 133.36 50.5214L123.969 40.958C123.89 40.8772 123.831 40.7805 123.798 40.6753C123.765 40.5701 123.758 40.4592 123.777 40.351C123.796 40.2428 123.842 40.1401 123.91 40.0509C123.979 39.9617 124.068 39.8882 124.171 39.8361L124.171 39.8361L131.28 36.2498C131.388 36.1953 131.508 36.1657 131.631 36.1636C131.754 36.1615 131.876 36.1869 131.986 36.2376C132.096 36.2884 132.192 36.3631 132.265 36.4555C132.338 36.5478 132.386 36.6552 132.406 36.7686L134.689 49.9184C134.717 50.0717 134.692 50.2295 134.615 50.3676C134.538 50.5057 134.415 50.6163 134.264 50.6823C134.249 50.6894 134.233 50.6961 134.217 50.7022Z" fill="#E6E6E6"/>
<path d="M270.839 78.9246C270.684 78.9001 270.54 78.8308 270.429 78.7265C270.318 78.6221 270.245 78.4879 270.219 78.3426L267.772 65.561C267.751 65.453 267.757 65.342 267.789 65.2365C267.821 65.131 267.879 65.0337 267.957 64.9521C268.036 64.8705 268.133 64.8067 268.242 64.7656C268.351 64.7245 268.468 64.7072 268.585 64.715H268.585L276.641 65.2511C276.764 65.2592 276.883 65.2947 276.988 65.3545C277.093 65.4143 277.181 65.4967 277.245 65.5948C277.309 65.693 277.347 65.8039 277.355 65.9186C277.364 66.0332 277.343 66.1481 277.295 66.2538L271.686 78.4993C271.623 78.6432 271.51 78.7635 271.367 78.8416C271.223 78.9198 271.055 78.9514 270.89 78.9316C270.873 78.9297 270.856 78.9274 270.839 78.9246Z" fill="#E6E6E6"/>
<path d="M227.838 70.553C227.693 70.4969 227.57 70.3997 227.486 70.2749C227.403 70.1501 227.363 70.004 227.373 69.857L228.018 56.8861C228.024 56.7765 228.056 56.6695 228.112 56.5733C228.169 56.4771 228.248 56.3941 228.343 56.3309C228.439 56.2676 228.549 56.2256 228.665 56.2081C228.781 56.1906 228.9 56.1981 229.012 56.2299L229.012 56.23L236.74 58.4246C236.858 58.458 236.965 58.5172 237.053 58.5973C237.141 58.6774 237.208 58.776 237.247 58.8849C237.286 58.9939 237.297 59.11 237.278 59.2236C237.259 59.3372 237.212 59.4449 237.14 59.5379L228.765 70.3142C228.67 70.4414 228.532 70.5354 228.373 70.5817C228.214 70.6281 228.043 70.6241 227.887 70.5706C227.871 70.5651 227.854 70.5593 227.838 70.553Z" fill="#E6E6E6"/>
<path d="M123.604 50.8016H121.755V56.2788H123.604V50.8016Z" fill="#F2F2F2"/>
<path d="M153.501 35.2348H151.651V40.712H153.501V35.2348Z" fill="#F2F2F2"/>
<path d="M145.928 52.012L144.481 53.0892L148.128 57.3745L149.575 56.2973L145.928 52.012Z" fill="#F2F2F2"/>
<path d="M137.212 68.609L134.284 73.3524L135.886 74.2172L138.814 69.4738L137.212 68.609Z" fill="#F2F2F2"/>
<path d="M128.891 15.2785L125.963 20.0219L127.564 20.8867L130.492 16.1433L128.891 15.2785Z" fill="#F2F2F2"/>
<path d="M216.359 56.5466H214.51V62.0238H216.359V56.5466Z" fill="#F2F2F2"/>
<path d="M246.256 40.9799H244.406V46.4571H246.256V40.9799Z" fill="#F2F2F2"/>
<path d="M238.683 57.757L237.236 58.8342L240.883 63.1196L242.33 62.0424L238.683 57.757Z" fill="#F2F2F2"/>
<path d="M229.967 74.354L227.039 79.0974L228.641 79.9622L231.569 75.2188L229.967 74.354Z" fill="#F2F2F2"/>
<path d="M221.646 21.0235L218.718 25.7669L220.319 26.6317L223.247 21.8883L221.646 21.0235Z" fill="#F2F2F2"/>
<path d="M62.2699 35.5231H60.4206V41.0003H62.2699V35.5231Z" fill="#F2F2F2"/>
<path d="M92.1665 19.9564H90.3172V25.4335H92.1665V19.9564Z" fill="#F2F2F2"/>
<path d="M84.594 36.7335L83.1471 37.8107L86.7941 42.096L88.241 41.0189L84.594 36.7335Z" fill="#F2F2F2"/>
<path d="M75.878 53.3305L72.95 58.0739L74.5515 58.9387L77.4796 54.1953L75.878 53.3305Z" fill="#F2F2F2"/>
<path d="M67.5563 -7.98788e-06L64.6283 4.74337L66.2298 5.60819L69.1578 0.864811L67.5563 -7.98788e-06Z" fill="#F2F2F2"/>
<path d="M41.0911 50.2795C38.2508 50.2795 35.4742 49.4917 33.1126 48.0158C30.7509 46.5399 28.9102 44.4421 27.8233 41.9878C26.7363 39.5334 26.4519 36.8327 27.0061 34.2271C27.5602 31.6216 28.9279 29.2283 30.9364 27.3498C32.9448 25.4713 35.5037 24.192 38.2894 23.6738C41.0752 23.1555 43.9627 23.4215 46.5868 24.4381C49.2109 25.4547 51.4538 27.1763 53.0318 29.3852C54.6098 31.5941 55.4521 34.191 55.4521 36.8476C55.4478 40.4087 53.9334 43.8228 51.2411 46.341C48.5488 48.8591 44.8986 50.2755 41.0911 50.2795ZM41.0911 26.0494C38.8077 26.0494 36.5756 26.6827 34.677 27.8692C32.7784 29.0557 31.2986 30.7422 30.4248 32.7153C29.551 34.6884 29.3224 36.8596 29.7678 38.9542C30.2133 41.0489 31.3129 42.9729 32.9275 44.4831C34.5421 45.9932 36.5992 47.0217 38.8388 47.4383C41.0783 47.855 43.3996 47.6411 45.5092 46.8238C47.6188 46.0065 49.4219 44.6225 50.6905 42.8468C51.9591 41.071 52.6362 38.9833 52.6362 36.8476C52.6327 33.9847 51.4153 31.24 49.2509 29.2157C47.0865 27.1913 44.152 26.0526 41.0911 26.0494Z" fill="#5DC8CD"/>
<path d="M54.0442 67.9969H28.1381C27.862 67.9969 27.5921 67.921 27.3618 67.7787C27.1315 67.6363 26.951 67.4337 26.8428 67.1962C26.7346 66.9587 26.7034 66.6966 26.7532 66.4426C26.803 66.1887 26.9315 65.954 27.1227 65.7678L47.7096 45.7228C47.9683 45.4711 48.3233 45.3258 48.6966 45.3188C49.0698 45.3119 49.4307 45.4439 49.6999 45.6858C49.9692 45.9277 50.1247 46.2596 50.1322 46.6087C50.1398 46.9578 49.9988 47.2954 49.7403 47.5474L31.4428 65.3632H54.0442C54.4176 65.3632 54.7757 65.502 55.0397 65.7489C55.3038 65.9959 55.4521 66.3308 55.4521 66.6801C55.4521 67.0293 55.3038 67.3643 55.0397 67.6112C54.7757 67.8582 54.4176 67.9969 54.0442 67.9969V67.9969Z" fill="#5DC8CD"/>
<path d="M44.3642 71.5573H38.875C38.6816 71.5329 38.506 71.439 38.3854 71.2954C38.2648 71.1519 38.2088 70.9701 38.2293 70.7885L38.875 67.7136C38.8546 67.5321 38.9106 67.3502 39.0312 67.2067C39.1517 67.0632 39.3274 66.9692 39.5208 66.9449H43.7184C43.9118 66.9692 44.0874 67.0632 44.208 67.2067C44.3286 67.3502 44.3846 67.5321 44.3641 67.7136L45.0099 70.7885C45.0304 70.9701 44.9744 71.1519 44.8538 71.2954C44.7332 71.439 44.5576 71.5329 44.3642 71.5573Z" fill="#5DC8CD"/>
<path d="M45.2581 69.8276H37.861C37.5749 69.8276 37.3005 69.7213 37.0982 69.5321C36.8959 69.3429 36.7822 69.0862 36.7822 68.8186C36.7822 68.5511 36.8959 68.2944 37.0982 68.1052C37.3005 67.916 37.5749 67.8097 37.861 67.8097H45.2581C45.5442 67.8097 45.8186 67.916 46.0209 68.1052C46.2232 68.2944 46.3368 68.5511 46.3368 68.8186C46.3368 69.0862 46.2232 69.3429 46.0209 69.5321C45.8186 69.7213 45.5442 69.8276 45.2581 69.8276Z" fill="#3F3D56"/>
<path d="M37.5477 68.5698C36.4158 68.3054 35.2342 68.2871 34.0936 68.5162C32.9529 68.7454 31.8836 69.216 30.9676 69.8919C30.0662 70.5842 29.3499 71.4636 28.8756 72.4602C28.4013 73.4568 28.1821 74.5432 28.2354 75.6329C28.461 80.3429 33.5308 82.8745 37.0648 85.4076C41.2409 88.4011 45.1611 91.8548 47.9908 96.0365C50.7931 100.178 52.5506 105.085 52.1434 110.027C51.7912 114.301 49.72 118.539 46.1681 121.306C45.7205 121.652 45.2505 121.972 44.7607 122.264C44.2618 122.564 44.7249 123.313 45.2274 123.011C49.1192 120.671 51.6936 116.771 52.6687 112.581C53.7535 107.919 52.787 103.065 50.6549 98.7857C48.4399 94.3397 44.9558 90.5599 41.0409 87.3419C39.099 85.7456 37.0364 84.2968 34.9473 82.8753C33.1103 81.6254 31.1849 80.2794 30.0432 78.3975C29.4795 77.4747 29.1772 76.4326 29.165 75.3699C29.1527 74.3073 29.431 73.2593 29.9734 72.3255C30.5395 71.3861 31.3611 70.6034 32.355 70.0568C33.3488 69.5101 34.4795 69.2191 35.6325 69.213C36.1955 69.208 36.7568 69.2721 37.3019 69.4038C37.8787 69.5416 38.1248 68.7078 37.5478 68.5698H37.5477Z" fill="#3F3D56"/>
<path d="M197.335 34.4245C194.494 34.4245 191.718 33.6367 189.356 32.1608C186.994 30.6849 185.154 28.5871 184.067 26.1327C182.98 23.6784 182.695 20.9777 183.25 18.3721C183.804 15.7666 185.171 13.3732 187.18 11.4948C189.188 9.61627 191.747 8.33701 194.533 7.81874C197.319 7.30046 200.206 7.56646 202.83 8.58309C205.454 9.59972 207.697 11.3213 209.275 13.5302C210.853 15.7391 211.696 18.336 211.696 20.9926C211.691 24.5537 210.177 27.9678 207.485 30.4859C204.792 33.004 201.142 34.4205 197.335 34.4245ZM197.335 10.1944C195.051 10.1944 192.819 10.8277 190.92 12.0142C189.022 13.2007 187.542 14.8871 186.668 16.8603C185.794 18.8334 185.566 21.0045 186.011 23.0992C186.457 25.1938 187.556 27.1179 189.171 28.628C190.786 30.1382 192.843 31.1666 195.082 31.5833C197.322 31.9999 199.643 31.7861 201.753 30.9688C203.862 30.1515 205.665 28.7675 206.934 26.9917C208.203 25.216 208.88 23.1282 208.88 20.9926C208.876 18.1297 207.659 15.385 205.494 13.3607C203.33 11.3363 200.395 10.1976 197.335 10.1944Z" fill="#5DC8CD"/>
<path d="M210.288 52.1419H184.382C184.105 52.1419 183.835 52.066 183.605 51.9236C183.375 51.7813 183.194 51.5787 183.086 51.3412C182.978 51.1036 182.947 50.8416 182.997 50.5876C183.046 50.3337 183.175 50.099 183.366 49.9128L203.953 29.8678C204.081 29.7428 204.234 29.6427 204.404 29.5731C204.573 29.5035 204.755 29.4658 204.94 29.4623C205.125 29.4587 205.309 29.4892 205.482 29.5522C205.654 29.6152 205.812 29.7093 205.945 29.8292C206.078 29.9491 206.185 30.0924 206.259 30.251C206.334 30.4095 206.374 30.5802 206.377 30.7532C206.381 30.9263 206.348 31.0983 206.28 31.2594C206.213 31.4206 206.112 31.5677 205.984 31.6923L187.686 49.5082H210.288C210.661 49.5082 211.019 49.6469 211.283 49.8939C211.547 50.1408 211.696 50.4758 211.696 50.825C211.696 51.1743 211.547 51.5092 211.283 51.7562C211.019 52.0032 210.661 52.1419 210.288 52.1419V52.1419Z" fill="#5DC8CD"/>
<path d="M200.936 55.7022H195.447C195.254 55.6779 195.078 55.584 194.957 55.4404C194.837 55.2969 194.781 55.115 194.801 54.9335L195.447 51.8586C195.427 51.6771 195.483 51.4952 195.603 51.3517C195.724 51.2081 195.899 51.1142 196.093 51.0899H200.29C200.484 51.1142 200.659 51.2081 200.78 51.3517C200.901 51.4952 200.957 51.6771 200.936 51.8586L201.582 54.9335C201.602 55.115 201.546 55.2969 201.426 55.4404C201.305 55.584 201.13 55.6779 200.936 55.7022Z" fill="#5DC8CD"/>
<path d="M201.83 53.9726H194.433C194.147 53.9726 193.872 53.8663 193.67 53.6771C193.468 53.4879 193.354 53.2312 193.354 52.9636C193.354 52.696 193.468 52.4394 193.67 52.2502C193.872 52.061 194.147 51.9547 194.433 51.9547H201.83C202.116 51.9547 202.391 52.061 202.593 52.2502C202.795 52.4394 202.909 52.696 202.909 52.9636C202.909 53.2312 202.795 53.4879 202.593 53.6771C202.391 53.8663 202.116 53.9726 201.83 53.9726Z" fill="#3F3D56"/>
<path d="M194.12 52.7148C192.988 52.4504 191.806 52.4321 190.666 52.6612C189.525 52.8904 188.456 53.361 187.54 54.0368C186.638 54.7291 185.922 55.6085 185.448 56.6052C184.973 57.6018 184.754 58.6881 184.807 59.7779C185.033 64.4879 190.103 67.0194 193.637 69.5526C197.813 72.546 201.733 75.9998 204.563 80.1814C207.365 84.3225 209.123 89.2296 208.715 94.1719C208.363 98.4464 206.292 102.684 202.74 105.451C202.292 105.797 201.822 106.117 201.333 106.409C200.834 106.709 201.297 107.458 201.799 107.156C205.691 104.816 208.266 100.916 209.241 96.7257C210.325 92.0637 209.359 87.2104 207.227 82.9306C205.012 78.4847 201.528 74.7049 197.613 71.4869C195.671 69.8906 193.608 68.4417 191.519 67.0203C189.682 65.7704 187.757 64.4244 186.615 62.5424C186.051 61.6197 185.749 60.5776 185.737 59.5149C185.725 58.4522 186.003 57.4043 186.545 56.4704C187.111 55.531 187.933 54.7483 188.927 54.2017C189.921 53.6551 191.052 53.364 192.204 53.358C192.767 53.353 193.329 53.4171 193.874 53.5487C194.451 53.6866 194.697 52.8528 194.12 52.7148V52.7148Z" fill="#3F3D56"/>
<path d="M276.817 201.457L273.32 201.457L271.657 188.843L276.817 188.844L276.817 201.457Z" fill="#FFB8B8"/>
<path d="M270.823 200.523H277.566V204.494H266.577C266.577 203.441 267.025 202.431 267.821 201.686C268.617 200.941 269.697 200.523 270.823 200.523Z" fill="#2F2E41"/>
<path d="M302.186 197.753L299.006 199.112L291.889 188.285L296.583 186.28L302.186 197.753Z" fill="#FFB8B8"/>
<path d="M296.319 199.232L302.453 196.612L304.217 200.224L294.221 204.494C293.753 203.536 293.712 202.443 294.105 201.457C294.499 200.47 295.295 199.67 296.319 199.232Z" fill="#2F2E41"/>
<path d="M276.594 198.131H273.254C272.93 198.13 272.618 198.015 272.381 197.809C272.144 197.602 271.999 197.32 271.974 197.018L270.152 151.523C270.139 151.348 270.166 151.173 270.233 151.01C270.299 150.846 270.402 150.699 270.536 150.577C270.67 150.454 270.831 150.361 271.007 150.303C271.183 150.245 271.371 150.224 271.557 150.241L290.875 152.16C291.188 152.189 291.479 152.324 291.692 152.54C291.906 152.756 292.027 153.038 292.033 153.332L292.438 173.4C292.44 173.509 292.463 173.617 292.505 173.719L300.429 192.938C300.49 193.087 300.519 193.245 300.514 193.404C300.509 193.563 300.471 193.72 300.401 193.865C300.33 194.01 300.23 194.14 300.106 194.249C299.981 194.357 299.835 194.441 299.675 194.496L296.29 195.663C295.996 195.764 295.673 195.761 295.381 195.655C295.089 195.548 294.849 195.346 294.705 195.085L284.971 177.382C284.918 177.286 284.879 177.183 284.856 177.077L283.193 169.583C283.144 169.366 283.015 169.172 282.828 169.036C282.64 168.9 282.407 168.83 282.17 168.84C281.933 168.85 281.708 168.939 281.534 169.091C281.361 169.242 281.251 169.446 281.224 169.667L277.869 197.068C277.833 197.36 277.684 197.631 277.449 197.827C277.213 198.023 276.909 198.131 276.594 198.131Z" fill="#2F2E41"/>
<path d="M278.257 115.95C282.126 115.95 285.262 113.017 285.262 109.398C285.262 105.78 282.126 102.847 278.257 102.847C274.389 102.847 271.253 105.78 271.253 109.398C271.253 113.017 274.389 115.95 278.257 115.95Z" fill="#FFB8B8"/>
<path d="M283.087 155.674C276.891 155.674 272.039 153.262 270.283 152.252H270.283C270.084 152.137 269.922 151.974 269.815 151.779C269.709 151.584 269.662 151.366 269.679 151.148L271.382 128.375C271.492 126.838 271.984 125.347 272.82 124.02C273.656 122.693 274.812 121.567 276.197 120.732C277.519 119.914 279.028 119.396 280.602 119.221C282.177 119.045 283.773 119.217 285.264 119.722C285.922 119.934 286.544 120.235 287.109 120.616C290.882 123.244 292.701 127.202 292.098 131.475C290.849 140.336 292.264 152.289 292.43 153.623L292.442 153.719L292.348 153.759C289.447 155.021 286.286 155.674 283.087 155.674Z" fill="#CCCCCC"/>
<path d="M292.004 158.927C292.339 158.691 292.615 158.39 292.812 158.043C293.009 157.697 293.122 157.315 293.144 156.923C293.165 156.532 293.095 156.14 292.938 155.777C292.78 155.413 292.54 155.087 292.233 154.82L296.343 146.097L291.121 146.925L288.019 155.081C287.573 155.593 287.344 156.24 287.375 156.9C287.405 157.559 287.694 158.186 288.185 158.66C288.676 159.134 289.336 159.423 290.04 159.472C290.744 159.521 291.443 159.327 292.004 158.927Z" fill="#FFB8B8"/>
<path d="M292.397 153.539C292.22 153.539 292.044 153.504 291.881 153.437C291.719 153.37 291.573 153.272 291.453 153.149L289.921 151.586C289.771 151.433 289.667 151.247 289.617 151.045C289.567 150.844 289.574 150.634 289.636 150.435L293.145 139.326L287.806 128.838C287.572 128.377 287.514 127.855 287.643 127.359C287.757 126.924 288.009 126.531 288.367 126.232C288.724 125.934 289.17 125.744 289.645 125.687C290.12 125.63 290.603 125.709 291.029 125.914C291.455 126.119 291.804 126.44 292.032 126.835L299.25 137.789C299.53 138.215 299.695 138.698 299.73 139.197C299.764 139.696 299.667 140.196 299.446 140.651L293.569 152.832C293.481 153.013 293.347 153.172 293.179 153.292C293.01 153.413 292.812 153.492 292.602 153.524C292.534 153.534 292.466 153.539 292.397 153.539Z" fill="#CCCCCC"/>
<path d="M284.029 115.174C283.302 115.291 282.705 114.345 282.614 113.68C282.524 113.015 282.783 112.378 282.811 111.717C282.839 111.056 282.506 110.253 281.772 110.057C281.003 109.852 280.29 110.429 279.502 110.36C278.405 110.263 277.854 109.062 277.721 108.09C277.588 107.119 277.484 105.968 276.533 105.414C275.586 104.861 274.414 105.263 273.325 105.28C271.485 105.309 269.612 103.997 269.182 102.378C269.405 102.438 269.644 102.427 269.859 102.346C270.075 102.265 270.256 102.119 270.373 101.932C270.465 101.731 270.484 101.508 270.426 101.297C270.369 101.086 270.238 100.898 270.055 100.764L272.141 101.719C271.856 101.176 272.286 100.558 272.879 100.353C273.471 100.147 274.16 100.24 274.814 100.335C278.08 100.809 281.862 100.575 284.029 102.904C285.529 104.517 286.764 107.587 286.595 109.573C286.427 111.559 284.029 115.174 284.029 115.174Z" fill="#2F2E41"/>
<path d="M246.887 126.343C247.251 126.149 247.657 126.032 248.075 126C248.492 125.969 248.913 126.023 249.306 126.16C249.699 126.296 250.055 126.512 250.349 126.791C250.643 127.07 250.869 127.407 251.009 127.776L261.2 127.708L258.316 131.862L249.081 131.29C248.401 131.47 247.675 131.41 247.04 131.122C246.405 130.834 245.905 130.338 245.634 129.728C245.364 129.118 245.342 128.437 245.573 127.813C245.804 127.189 246.271 126.666 246.887 126.343H246.887Z" fill="#FFB8B8"/>
<path d="M252.19 130.871C252.154 130.709 252.154 130.541 252.191 130.378C252.228 130.215 252.301 130.062 252.405 129.927L253.729 128.205C253.859 128.038 254.032 127.904 254.233 127.817C254.434 127.73 254.655 127.693 254.876 127.71L266.797 127.243L277.108 121.63C277.543 121.322 278.078 121.163 278.623 121.18C279.102 121.195 279.564 121.346 279.95 121.613C280.335 121.879 280.625 122.248 280.781 122.672C280.938 123.095 280.953 123.553 280.826 123.985C280.698 124.417 280.433 124.803 280.067 125.091L270.072 133.934C269.684 134.278 269.212 134.528 268.696 134.661C268.181 134.794 267.639 134.807 267.117 134.698L253.168 131.8C252.961 131.757 252.768 131.666 252.607 131.536C252.447 131.407 252.323 131.241 252.248 131.055C252.223 130.996 252.204 130.934 252.19 130.871Z" fill="#CCCCCC"/>
<path d="M21.6575 144.02C21.8164 144.275 22.0277 144.5 22.2792 144.679C22.5307 144.859 22.8176 144.99 23.1234 145.066C23.4293 145.142 23.7481 145.161 24.0617 145.121C24.3753 145.082 24.6775 144.985 24.9512 144.837C25.2248 144.688 25.4644 144.49 25.6564 144.255C25.8484 144.02 25.989 143.752 26.0701 143.466C26.1512 143.179 26.1713 142.881 26.1292 142.588C26.0871 142.295 25.9836 142.012 25.8247 141.756C25.7573 141.65 25.6815 141.55 25.5978 141.455L27.6247 127.943L27.6854 127.538L28.0971 124.781L28.1578 124.383L27.9334 124.393L24.0065 124.561L22.9534 124.606L22.8214 127.121L22.0745 141.262C21.6843 141.612 21.431 142.073 21.3554 142.573C21.2797 143.074 21.3861 143.583 21.6575 144.02Z" fill="#FFB8B8"/>
<path d="M27.6737 127.661L22.6872 127.233C22.4286 127.21 22.1901 127.093 22.0238 126.906C21.8575 126.719 21.7768 126.479 21.7993 126.237L22.7243 116.538C22.7691 116.067 22.9144 115.609 23.1518 115.191C23.3891 114.774 23.7137 114.405 24.1061 114.107C24.4986 113.808 24.951 113.587 25.4367 113.455C25.9223 113.323 26.4313 113.284 26.9335 113.339C27.4357 113.395 27.9208 113.544 28.3603 113.778C28.7998 114.012 29.1847 114.326 29.4921 114.701C29.7995 115.077 30.0233 115.506 30.1502 115.964C30.277 116.422 30.3044 116.899 30.2307 117.367L28.7355 126.88C28.7012 127.098 28.5842 127.297 28.4061 127.441C28.2279 127.585 28.0003 127.665 27.7647 127.665C27.7346 127.665 27.7042 127.664 27.6737 127.661Z" fill="#CCCCCC"/>
<path d="M23.8946 119.825C23.3903 118.489 23.3669 117.035 23.8281 115.685C24.2892 114.336 25.2096 113.164 26.4489 112.349C28.3293 111.146 30.9025 110.714 33.6736 113.799C37.0269 117.566 39.4187 121.998 40.6672 126.758L29.319 128.486C29.319 128.486 25.4593 124.074 23.8946 119.825Z" fill="#CCCCCC"/>
<path d="M42.2485 189.337L45.4838 189.336L47.0231 177.664L42.2479 177.664L42.2485 189.337Z" fill="#FFB8B8"/>
<path d="M51.724 192.146L41.5553 192.147L41.5551 188.472L47.795 188.472C48.837 188.472 49.8363 188.859 50.5731 189.548C51.31 190.237 51.724 191.172 51.724 192.146L51.724 192.146Z" fill="#2F2E41"/>
<path d="M15.6476 186.697L18.7196 187.647L24.0982 177.016L19.5641 175.615L15.6476 186.697Z" fill="#FFB8B8"/>
<path d="M23.7015 192.147L14.0465 189.162L15.2795 185.673L21.2041 187.504C22.1935 187.81 23.0124 188.471 23.4808 189.342C23.9491 190.212 24.0285 191.221 23.7015 192.147L23.7015 192.147Z" fill="#2F2E41"/>
<path d="M31.0178 109.288C34.5977 109.288 37.4998 106.574 37.4998 103.226C37.4998 99.8775 34.5977 97.1631 31.0178 97.1631C27.4379 97.1631 24.5358 99.8775 24.5358 103.226C24.5358 106.574 27.4379 109.288 31.0178 109.288Z" fill="#FFB8B8"/>
<path d="M36.6932 186.087L33.6884 167.538C33.6564 167.34 33.5518 167.159 33.3926 167.025C33.2334 166.891 33.0294 166.813 32.8155 166.805C32.6016 166.796 32.3911 166.857 32.22 166.977C32.0489 167.098 31.9278 167.27 31.8775 167.464L27.3018 185.141C27.2297 185.412 27.052 185.648 26.8035 185.802C26.5551 185.957 26.2539 186.019 25.959 185.977L13.3374 184.079C13.17 184.054 13.0104 183.996 12.8691 183.908C12.7279 183.82 12.6083 183.706 12.5185 183.571C12.4287 183.437 12.3707 183.286 12.3484 183.129C12.3261 182.971 12.3401 182.812 12.3893 182.66L28.8471 131.911C28.8939 131.766 28.8994 131.613 28.8632 131.466L28.3152 129.245C28.255 129.004 28.2828 128.752 28.3941 128.527C28.5054 128.303 28.6938 128.12 28.9292 128.008C31.1703 126.938 36.8453 124.715 41.1302 127.15C41.2693 127.23 41.3897 127.335 41.484 127.459C41.5784 127.583 41.6447 127.724 41.679 127.873L54.5358 184.39C54.5708 184.544 54.5705 184.703 54.5349 184.857C54.4994 185.01 54.4295 185.155 54.3297 185.281C54.2299 185.408 54.1026 185.513 53.9561 185.59C53.8097 185.667 53.6475 185.714 53.4801 185.728L37.9734 187.027C37.9376 187.03 37.9022 187.031 37.867 187.031C37.583 187.031 37.3087 186.935 37.0934 186.762C36.8782 186.589 36.7362 186.349 36.6932 186.087Z" fill="#2F2E41"/>
<path d="M26.7197 98.9424C27.2083 98.6675 27.6419 98.315 28.0011 97.9008C28.1782 97.6915 28.2947 97.4432 28.3395 97.1796C28.3843 96.916 28.3559 96.6461 28.2569 96.3958C27.9295 95.72 26.9563 95.506 26.2022 95.7364C25.4482 95.9667 24.8656 96.5193 24.3145 97.0529C23.793 97.491 23.3786 98.0291 23.0996 98.6305C22.8693 99.2475 22.9876 100.03 23.5603 100.404C24.1224 100.771 24.9305 100.621 25.471 100.227C25.9814 99.7952 26.3884 99.2678 26.6653 98.6788L26.7197 98.9424Z" fill="#2F2E41"/>
<path d="M24.5243 97.2149C24.4884 95.5067 22.4066 94.2819 20.6087 94.5845C18.8108 94.8872 17.4289 96.321 16.7371 97.9023C15.2755 101.243 16.3727 105.056 17.781 108.417C19.1893 111.778 20.9321 115.19 20.7266 118.794C20.5878 120.743 19.8888 122.62 18.7036 124.228C17.5184 125.836 15.8908 127.114 13.993 127.929C16.022 128.789 18.4474 127.9 20.1524 126.559C23.939 123.581 25.4007 118.279 23.6257 113.959C22.7503 111.829 21.2075 110.006 20.003 108.021C18.7986 106.036 17.9148 103.697 18.5367 101.49C19.1585 99.2832 21.805 97.4957 24.0676 98.3507L24.5243 97.2149Z" fill="#2F2E41"/>
<path d="M31.4065 105.916C30.8415 105.023 30.2711 103.85 31.3041 103.07C31.5287 102.908 31.7857 102.789 32.0599 102.722C32.3341 102.654 32.6201 102.638 32.9009 102.675C34.0654 102.806 35.3334 102.86 36.4605 102.465C36.8832 102.329 37.2723 102.114 37.6048 101.835C37.9374 101.555 38.2064 101.216 38.3961 100.838C38.978 99.5483 38.2494 97.9814 37.033 97.1663C36.2888 96.6857 35.4095 96.4214 34.5053 96.4064C33.6012 96.3915 32.7124 96.6266 31.9506 97.0822C30.3751 96.4314 28.4635 96.7208 27.0321 97.6167C25.6008 98.5127 24.6214 99.9476 24.0893 101.48C23.5992 102.798 23.5148 104.219 23.8457 105.581C24.1121 106.528 24.6185 107.401 25.3222 108.126C26.0258 108.852 26.906 109.408 27.8881 109.747C28.2707 109.888 28.6862 109.933 29.0929 109.876C29.4997 109.82 29.8835 109.664 30.2058 109.425C30.7299 108.986 31.1323 108.434 31.3788 107.818C31.5935 107.143 31.7084 106.393 31.4065 105.916Z" fill="#2F2E41"/>
<path d="M50.6358 111.326C50.6034 111.459 50.5823 111.594 50.5726 111.731L39.2356 117.848L36.48 116.364L33.5423 119.961L38.1477 123.031C38.5197 123.279 38.9678 123.408 39.4245 123.397C39.8813 123.387 40.3221 123.238 40.6808 122.973L52.3712 114.347C52.8988 114.53 53.4733 114.558 54.0184 114.428C54.5635 114.298 55.0533 114.015 55.4226 113.618C55.7919 113.222 56.0233 112.729 56.086 112.206C56.1486 111.683 56.0396 111.155 55.7734 110.691C55.5072 110.228 55.0964 109.851 54.5957 109.611C54.0949 109.371 53.528 109.28 52.9703 109.349C52.4125 109.417 51.8904 109.644 51.4734 109.997C51.0564 110.35 50.7642 110.813 50.6358 111.326V111.326Z" fill="#FFB8B8"/>
<path d="M38.8566 118.137L35.1925 122.579C35.0882 122.705 34.9561 122.809 34.805 122.884C34.654 122.958 34.4876 123.001 34.3172 123.01C34.1468 123.018 33.9764 122.993 33.8175 122.934C33.6587 122.876 33.5152 122.786 33.3968 122.671L29.2488 118.642C28.5606 118.14 28.1135 117.402 28.0056 116.592C27.8976 115.782 28.1377 114.964 28.6731 114.319C29.2085 113.674 29.9956 113.254 30.8618 113.151C31.7279 113.047 32.6025 113.27 33.2937 113.769L38.4962 116.49C38.6452 116.568 38.7744 116.675 38.8751 116.803C38.9758 116.932 39.0456 117.08 39.0798 117.236C39.114 117.393 39.1118 117.554 39.0733 117.71C39.0347 117.865 38.9608 118.011 38.8566 118.137Z" fill="#CCCCCC"/>
<path d="M253.612 101.92C253.238 101.917 252.88 101.776 252.617 101.527C252.354 101.277 252.207 100.94 252.21 100.59V61.3939L241.578 71.4733C241.448 71.5965 241.294 71.6944 241.124 71.7613C240.954 71.8281 240.771 71.8625 240.586 71.8625C240.401 71.8625 240.219 71.8281 240.048 71.7613C239.878 71.6944 239.724 71.5965 239.595 71.4733C239.331 71.2223 239.184 70.8848 239.184 70.5333C239.184 70.1817 239.331 69.8442 239.595 69.5933L252.621 57.2447C252.815 57.0591 253.065 56.9325 253.337 56.8811C253.61 56.8298 253.892 56.856 254.149 56.9565C254.406 57.0589 254.626 57.23 254.78 57.4484C254.934 57.6669 255.015 57.923 255.014 58.1847V100.59C255.017 100.94 254.87 101.277 254.607 101.527C254.345 101.776 253.986 101.917 253.612 101.92Z" fill="#5DC8CD"/>
<path d="M251.299 105.162H256.766C256.96 105.136 257.135 105.041 257.255 104.896C257.375 104.751 257.43 104.568 257.409 104.386L256.766 101.282C256.787 101.1 256.732 100.917 256.612 100.772C256.492 100.627 256.317 100.532 256.123 100.506H251.942C251.748 100.532 251.573 100.627 251.452 100.772C251.332 100.917 251.277 101.1 251.299 101.282L250.656 104.386C250.634 104.568 250.689 104.751 250.809 104.896C250.929 105.041 251.105 105.136 251.299 105.162Z" fill="#5DC8CD"/>
<path d="M249.334 102.397C249.333 102.129 249.445 101.871 249.646 101.68C249.848 101.489 250.122 101.381 250.409 101.379H257.776C258.062 101.383 258.335 101.491 258.536 101.682C258.737 101.873 258.85 102.13 258.85 102.397C258.85 102.665 258.737 102.922 258.536 103.113C258.335 103.303 258.062 103.412 257.776 103.416H250.409C250.122 103.414 249.848 103.305 249.646 103.114C249.445 102.923 249.333 102.666 249.334 102.397Z" fill="#3F3D56"/>
<path d="M258.088 102.146C259.216 101.88 260.395 101.861 261.532 102.093C262.669 102.325 263.734 102.8 264.641 103.481C265.542 104.185 266.256 105.075 266.728 106.08C267.2 107.086 267.417 108.179 267.362 109.276C267.138 114.031 262.088 116.586 258.569 119.144C254.409 122.165 250.505 125.652 247.687 129.873C244.896 134.053 243.146 139.007 243.551 143.996C243.902 148.311 245.965 152.589 249.502 155.382C249.948 155.731 250.416 156.054 250.904 156.349C251.401 156.652 250.94 157.408 250.439 157.103C246.563 154.741 243.999 150.804 243.028 146.574C241.948 141.868 242.91 136.969 245.034 132.648C247.24 128.16 250.71 124.345 254.609 121.096C256.543 119.485 258.597 118.022 260.678 116.587C262.507 115.325 264.425 113.967 265.562 112.067C266.124 111.133 266.424 110.082 266.437 109.011C266.449 107.939 266.172 106.882 265.631 105.937C265.075 104.993 264.259 104.204 263.269 103.652C262.278 103.1 261.148 102.804 259.995 102.796C259.434 102.79 258.875 102.855 258.333 102.988C257.758 103.127 257.513 102.285 258.088 102.146L258.088 102.146Z" fill="#3F3D56"/>
<path d="M174.68 130.831C175.058 130.655 175.39 130.404 175.653 130.095C175.916 129.786 176.103 129.427 176.202 129.043C176.3 128.659 176.307 128.259 176.223 127.872C176.138 127.485 175.964 127.12 175.713 126.803L177.872 107.051H173.205L171.488 126.338C170.946 126.768 170.592 127.37 170.493 128.028C170.394 128.687 170.557 129.357 170.95 129.91C171.343 130.464 171.94 130.864 172.628 131.034C173.315 131.203 174.045 131.131 174.68 130.831Z" fill="#A0616A"/>
<path d="M178.965 96.151C182.613 96.151 185.569 93.3856 185.569 89.9743C185.569 86.563 182.613 83.7976 178.965 83.7976C175.318 83.7976 172.362 86.563 172.362 89.9743C172.362 93.3856 175.318 96.151 178.965 96.151Z" fill="#A0616A"/>
<path d="M180.209 118.554C179.944 118.554 179.687 118.473 179.477 118.323C179.267 118.173 179.115 117.963 179.045 117.725C178.516 115.927 177.139 112.887 174.953 108.689C174.46 107.74 174.187 106.704 174.152 105.65C174.117 104.595 174.321 103.545 174.75 102.57C175.179 101.594 175.824 100.714 176.642 99.9876C177.46 99.2613 178.433 98.705 179.498 98.3552C180.506 98.0221 181.576 97.8816 182.644 97.942C183.711 98.0024 184.755 98.2625 185.714 98.7068C186.672 99.1512 187.525 99.7708 188.223 100.529C188.921 101.287 189.449 102.169 189.776 103.121C191.47 108.089 191.388 113.41 191.275 115.467C191.26 115.715 191.16 115.952 190.988 116.141C190.817 116.33 190.583 116.461 190.324 116.515L180.468 118.528C180.383 118.545 180.296 118.554 180.209 118.554Z" fill="#CCCCCC"/>
<path d="M189.753 177.207H193.05L194.618 165.315L189.753 165.315L189.753 177.207Z" fill="#A0616A"/>
<path d="M199.407 180.07L189.047 180.07L189.047 176.327L195.404 176.326C196.466 176.326 197.484 176.721 198.235 177.423C198.985 178.125 199.407 179.077 199.407 180.07Z" fill="#2F2E41"/>
<path d="M156.791 173.212L159.68 174.697L167.18 164.983L162.917 162.79L156.791 173.212Z" fill="#A0616A"/>
<path d="M163.776 180.07L154.697 175.402L156.626 172.121L162.197 174.986C163.127 175.464 163.816 176.269 164.112 177.222C164.408 178.176 164.287 179.2 163.776 180.07Z" fill="#2F2E41"/>
<path d="M189.599 170.607C189.306 170.606 189.022 170.506 188.801 170.325C188.581 170.143 188.438 169.893 188.401 169.621L184.278 139.908C184.26 139.777 184.198 139.654 184.1 139.558C184.003 139.461 183.876 139.396 183.737 139.371C183.598 139.347 183.454 139.364 183.325 139.42C183.197 139.477 183.091 139.569 183.023 139.685L165.842 168.84C165.7 169.078 165.472 169.261 165.198 169.355C164.925 169.448 164.624 169.447 164.351 169.352L160.607 168.017C160.456 167.963 160.318 167.882 160.202 167.778C160.085 167.674 159.992 167.549 159.928 167.411C159.863 167.273 159.829 167.124 159.827 166.973C159.826 166.822 159.856 166.673 159.917 166.533L171.818 139.187C171.848 139.118 171.869 139.045 171.879 138.971C173.491 127.301 177.593 121.367 178.811 119.826C178.9 119.713 178.959 119.581 178.982 119.442C179.005 119.303 178.992 119.161 178.945 119.028L178.777 118.558C178.71 118.371 178.696 118.172 178.737 117.979C178.778 117.785 178.872 117.606 179.01 117.457C183.401 112.779 191.055 115.332 191.131 115.358L191.17 115.371L191.194 115.402C199.776 126.41 196.603 162.164 195.879 169.22C195.852 169.485 195.726 169.732 195.523 169.919C195.319 170.105 195.052 170.218 194.768 170.238L189.693 170.603C189.662 170.606 189.63 170.607 189.599 170.607Z" fill="#2F2E41"/>
<path d="M204.639 97.1492C204.606 97.2849 204.585 97.4228 204.575 97.5616L193.024 103.794L190.217 102.282L187.224 105.947L191.916 109.075C192.295 109.327 192.752 109.458 193.217 109.448C193.682 109.437 194.131 109.286 194.497 109.016L206.407 100.228C206.945 100.414 207.53 100.442 208.085 100.31C208.641 100.177 209.14 99.8895 209.516 99.4851C209.892 99.0807 210.128 98.5788 210.192 98.046C210.256 97.5133 210.145 96.975 209.873 96.5028C209.602 96.0305 209.184 95.6467 208.674 95.4023C208.163 95.158 207.586 95.0647 207.018 95.1349C206.449 95.205 205.917 95.4353 205.493 95.7952C205.068 96.155 204.77 96.6273 204.639 97.1492Z" fill="#A0616A"/>
<path d="M192.638 104.089L188.905 108.614C188.799 108.743 188.664 108.849 188.511 108.925C188.357 109 188.187 109.044 188.013 109.053C187.84 109.062 187.666 109.036 187.504 108.976C187.343 108.917 187.196 108.825 187.076 108.708L182.85 104.603C182.148 104.092 181.693 103.34 181.583 102.515C181.473 101.689 181.717 100.856 182.263 100.199C182.808 99.5413 183.61 99.1132 184.493 99.0081C185.375 98.903 186.267 99.1296 186.971 99.6381L192.271 102.41C192.423 102.49 192.555 102.599 192.657 102.73C192.76 102.861 192.831 103.012 192.866 103.171C192.901 103.33 192.898 103.495 192.859 103.653C192.82 103.812 192.745 103.96 192.638 104.089V104.089Z" fill="#CCCCCC"/>
<path d="M178.17 111.951L172.156 110.935C171.985 110.907 171.822 110.843 171.68 110.751C171.537 110.658 171.417 110.537 171.329 110.397C171.241 110.257 171.185 110.101 171.167 109.939C171.149 109.777 171.169 109.614 171.224 109.46L173.174 104.061C173.337 103.243 173.84 102.519 174.573 102.047C175.306 101.576 176.209 101.395 177.084 101.545C177.959 101.696 178.735 102.164 179.241 102.849C179.747 103.533 179.942 104.377 179.784 105.196L179.594 110.873C179.588 111.036 179.546 111.195 179.468 111.341C179.391 111.487 179.281 111.615 179.146 111.717C179.01 111.819 178.853 111.893 178.685 111.934C178.516 111.974 178.341 111.98 178.17 111.951Z" fill="#CCCCCC"/>
<path d="M180.011 88.5536C181.708 89.6401 183.937 90.757 185.67 89.5999C186.213 89.2137 186.607 88.6736 186.793 88.0604C186.98 87.4473 186.949 86.7941 186.706 86.1986C185.876 83.9784 183.595 83.0009 181.414 82.2517C178.579 81.2777 175.492 80.5028 172.565 81.2004C169.638 81.8979 167.051 84.5483 167.58 87.3298C168.005 89.5665 170.26 91.4277 169.94 93.6796C169.618 95.946 166.893 97.139 164.487 97.5441C162.081 97.9491 159.389 98.0793 157.66 99.6956C155.454 101.757 156.005 105.443 158.081 107.62C160.156 109.797 163.288 110.783 166.323 111.454C170.344 112.343 174.693 112.81 178.511 111.335C182.33 109.86 185.302 105.889 184.196 102.166C183.729 100.593 182.628 99.2641 181.564 97.9701C180.5 96.6762 179.423 95.323 179.017 93.7354C178.679 92.4124 178.929 90.8764 179.867 89.884C180.038 89.7103 180.145 89.4905 180.174 89.2562C180.203 89.0218 180.151 88.785 180.027 88.5797L180.011 88.5536Z" fill="#2F2E41"/>
<path d="M83.5594 157.632C83.8091 157.279 84.1387 156.981 84.5249 156.759C84.9112 156.538 85.3447 156.398 85.7948 156.35C86.245 156.302 86.701 156.347 87.1306 156.482C87.5602 156.616 87.953 156.838 88.2813 157.13L98.0684 152.405L97.46 157.728L88.2593 161.398C87.6981 161.882 86.9669 162.156 86.2042 162.169C85.4415 162.181 84.7002 161.932 84.1209 161.468C83.5416 161.004 83.1644 160.357 83.061 159.65C82.9575 158.943 83.1348 158.225 83.5594 157.632H83.5594Z" fill="#A0616A"/>
<path d="M91.9808 159.617C91.7586 159.454 91.5948 159.232 91.5111 158.98L90.7326 156.628C90.6489 156.373 90.651 156.1 90.7384 155.846C90.8259 155.593 90.9945 155.37 91.2216 155.209L99.154 149.605L107.745 134.697C108.104 134.263 108.552 133.899 109.062 133.627C109.572 133.355 110.134 133.179 110.716 133.11C111.299 133.042 111.89 133.081 112.456 133.226C113.023 133.371 113.553 133.619 114.017 133.956C114.48 134.292 114.869 134.711 115.159 135.189C115.45 135.666 115.637 136.192 115.71 136.737C115.783 137.282 115.74 137.835 115.585 138.364C115.429 138.894 115.164 139.389 114.803 139.823L109.916 149.471C108.433 152.4 105.863 154.725 102.684 156.014L93.3881 159.786C93.2093 159.859 93.0162 159.895 92.8214 159.893C92.6265 159.891 92.4343 159.851 92.2572 159.775C92.1588 159.733 92.066 159.68 91.9808 159.617Z" fill="#CCCCCC"/>
<path d="M115.018 128.475C119.199 128.475 122.588 125.305 122.588 121.395C122.588 117.484 119.199 114.314 115.018 114.314C110.837 114.314 107.448 117.484 107.448 121.395C107.448 125.305 110.837 128.475 115.018 128.475Z" fill="#A0616A"/>
<path d="M111.952 214.275H108.173L106.376 200.643L111.953 200.644L111.952 214.275Z" fill="#A0616A"/>
<path d="M105.474 213.265H112.762V217.557H100.886C100.886 216.993 101.005 216.435 101.235 215.914C101.466 215.394 101.804 214.921 102.23 214.522C102.656 214.124 103.162 213.808 103.718 213.592C104.275 213.376 104.872 213.265 105.474 213.265Z" fill="#2F2E41"/>
<path d="M124.281 214.275H120.502L118.704 200.643L124.281 200.644L124.281 214.275Z" fill="#A0616A"/>
<path d="M117.803 213.265H125.09V217.557H113.214C113.214 216.993 113.333 216.435 113.564 215.914C113.794 215.394 114.132 214.921 114.558 214.522C114.984 214.124 115.49 213.808 116.047 213.592C116.604 213.376 117.2 213.265 117.803 213.265Z" fill="#2F2E41"/>
<path d="M124.556 210.816H120.128C119.823 210.816 119.527 210.722 119.285 210.548C119.043 210.375 118.869 210.132 118.789 209.856L112.414 187.746C112.404 187.711 112.381 187.682 112.349 187.662C112.317 187.643 112.278 187.635 112.241 187.641C112.203 187.647 112.169 187.666 112.145 187.693C112.121 187.721 112.109 187.756 112.112 187.792L113.4 208.762C113.412 208.947 113.38 209.133 113.309 209.306C113.237 209.479 113.126 209.636 112.984 209.765C112.841 209.895 112.671 209.994 112.484 210.057C112.297 210.12 112.098 210.144 111.9 210.129L106.923 209.741C106.605 209.715 106.305 209.588 106.075 209.38C105.845 209.171 105.699 208.895 105.661 208.598L101.125 164.566L102.879 165.55L119.316 162.94L125.931 209.347C125.957 209.531 125.941 209.717 125.884 209.894C125.827 210.071 125.73 210.234 125.6 210.373C125.47 210.512 125.309 210.624 125.129 210.7C124.949 210.777 124.754 210.816 124.556 210.816Z" fill="#2F2E41"/>
<path d="M106.622 169.213C104.809 169.2 103.032 168.732 101.477 167.859C101.238 167.727 101.047 167.529 100.929 167.293C100.812 167.057 100.773 166.793 100.819 166.536C101.397 163.225 104.419 146.24 107.169 136.98C108.289 133.208 110.766 131.177 114.531 130.942C120.038 130.604 124.933 134.634 125.443 139.936C126.343 149.29 122.691 162.58 121.079 167.86C121.017 168.063 120.902 168.25 120.744 168.403C120.587 168.555 120.392 168.669 120.176 168.735C119.96 168.801 119.731 168.816 119.507 168.779C119.284 168.742 119.074 168.655 118.895 168.524L115.609 166.134C115.407 165.989 115.157 165.916 114.902 165.926C114.648 165.935 114.405 166.028 114.217 166.188C111.447 168.499 108.816 169.213 106.622 169.213Z" fill="#CCCCCC"/>
<path d="M112.977 169.482C112.94 169.06 113.003 168.635 113.16 168.238C113.318 167.84 113.567 167.48 113.89 167.183C114.212 166.885 114.601 166.657 115.028 166.515C115.455 166.373 115.91 166.321 116.361 166.361L120.944 156.994L123.978 161.534L119.16 169.733C119.037 170.437 118.643 171.075 118.051 171.525C117.459 171.975 116.712 172.207 115.949 172.176C115.187 172.145 114.464 171.854 113.916 171.357C113.368 170.861 113.034 170.194 112.977 169.482Z" fill="#A0616A"/>
<path d="M120.913 166.183C120.631 166.183 120.355 166.103 120.123 165.953L117.958 164.551C117.724 164.399 117.546 164.183 117.447 163.933C117.349 163.683 117.335 163.41 117.407 163.153L119.951 154.164L116.874 137.475C116.871 136.926 116.983 136.382 117.205 135.873C117.427 135.365 117.753 134.902 118.166 134.512C118.579 134.121 119.07 133.811 119.611 133.598C120.153 133.385 120.733 133.274 121.321 133.272C121.908 133.269 122.49 133.375 123.033 133.582C123.577 133.79 124.071 134.096 124.488 134.483C124.905 134.869 125.236 135.329 125.463 135.835C125.69 136.342 125.808 136.885 125.81 137.434L128.331 147.848C129.097 151.008 128.609 154.321 126.958 157.17L122.132 165.504C122.039 165.664 121.911 165.804 121.756 165.915C121.602 166.026 121.424 166.105 121.235 166.148C121.129 166.171 121.021 166.183 120.913 166.183Z" fill="#CCCCCC"/>
<path opacity="0.2" d="M117.489 144.513L120.263 155.468L116.256 164.692L119.03 155.756L117.489 144.513Z" fill="black"/>
<path d="M119.338 127.217C120.011 127.229 120.681 127.115 121.307 126.884C121.582 126.784 121.868 126.703 122.144 126.603C124.573 125.726 126.173 123.306 126.23 120.871C126.288 118.436 124.939 116.072 122.937 114.514C120.935 112.957 118.342 112.157 115.745 111.972C112.948 111.773 109.798 112.436 108.235 114.615C107.819 115.195 107.528 115.899 107.775 116.599C107.849 116.81 107.981 117 108.157 117.148C108.855 117.729 109.551 117.292 110.263 117.254C111.241 117.201 112.119 117.941 112.435 118.809C112.751 119.676 112.612 120.631 112.357 121.516C112.163 122.048 112.04 122.601 111.992 123.162C111.972 123.443 112.028 123.724 112.157 123.979C112.285 124.234 112.481 124.454 112.725 124.619C113.337 124.964 114.139 124.764 114.751 124.419C115.362 124.074 115.891 123.595 116.551 123.341C117.212 123.087 118.099 123.143 118.484 123.706C118.606 123.911 118.688 124.134 118.728 124.366C119.073 125.835 118.993 125.748 119.338 127.217L119.338 127.217Z" fill="#2F2E41"/>
<path d="M318.692 204.451H242.872C242.79 204.451 242.711 204.421 242.654 204.367C242.596 204.313 242.563 204.239 242.563 204.163C242.563 204.086 242.596 204.013 242.654 203.959C242.711 203.905 242.79 203.875 242.872 203.875H318.692C318.774 203.875 318.852 203.905 318.91 203.959C318.968 204.013 319 204.086 319 204.163C319 204.239 318.968 204.313 318.91 204.367C318.852 204.421 318.774 204.451 318.692 204.451Z" fill="#CCCCCC"/>
<path d="M76.1285 192.632H0.308213C0.22647 192.632 0.148074 192.602 0.0902731 192.548C0.0324721 192.493 0 192.42 0 192.344C0 192.267 0.0324721 192.194 0.0902731 192.14C0.148074 192.086 0.22647 192.055 0.308213 192.055H76.1285C76.2103 192.055 76.2886 192.086 76.3464 192.14C76.4042 192.194 76.4367 192.267 76.4367 192.344C76.4367 192.42 76.4042 192.493 76.3464 192.548C76.2886 192.602 76.2103 192.632 76.1285 192.632Z" fill="#CCCCCC"/>
<path d="M214.208 179.948H138.387C138.306 179.948 138.227 179.918 138.17 179.864C138.112 179.809 138.079 179.736 138.079 179.66C138.079 179.583 138.112 179.51 138.17 179.456C138.227 179.402 138.306 179.371 138.387 179.371H214.208C214.289 179.371 214.368 179.402 214.426 179.456C214.483 179.51 214.516 179.583 214.516 179.66C214.516 179.736 214.483 179.809 214.426 179.864C214.368 179.918 214.289 179.948 214.208 179.948Z" fill="#CCCCCC"/>
<path d="M156.264 218H80.4435C80.3618 218 80.2834 217.97 80.2256 217.916C80.1678 217.862 80.1353 217.788 80.1353 217.712C80.1353 217.635 80.1678 217.562 80.2256 217.508C80.2834 217.454 80.3618 217.423 80.4435 217.423H156.264C156.346 217.423 156.424 217.454 156.482 217.508C156.54 217.562 156.572 217.635 156.572 217.712C156.572 217.788 156.54 217.862 156.482 217.916C156.424 217.97 156.346 218 156.264 218Z" fill="#CCCCCC"/>
<path d="M183.065 81.5971L180.218 79.7015L177.958 78.1947L174.681 76.0116L172.418 74.5061L169.342 72.4547C169.292 72.4217 169.233 72.4015 169.172 72.3962C169.111 72.3908 169.05 72.4006 168.994 72.4243C168.939 72.4481 168.891 72.4851 168.855 72.5316C168.82 72.5782 168.798 72.6326 168.792 72.6896L168.532 75.2477L168.329 77.2246L168.036 80.09L167.837 82.0685L167.544 84.9338L167.344 86.9093L167.194 88.3775C167.186 88.4344 167.195 88.4923 167.221 88.5442C167.247 88.5958 167.286 88.6406 167.335 88.6745C167.385 88.7078 167.443 88.7281 167.504 88.7335C167.565 88.7388 167.626 88.7289 167.682 88.7048L183.01 82.1566C183.058 82.1373 183.101 82.1075 183.134 82.0696C183.168 82.0317 183.191 81.9869 183.202 81.9389C183.207 81.9235 183.211 81.9075 183.213 81.8913C183.217 81.8346 183.207 81.7778 183.182 81.726C183.157 81.6736 183.116 81.6289 183.065 81.5971Z" fill="#5DC8CD"/>
<path d="M174.68 76.0116L168.329 77.2246L168.532 75.2476L172.418 74.5059L174.68 76.0116Z" fill="#3F3D56"/>
<path d="M180.218 79.7015L167.837 82.0685L168.036 80.0898L177.958 78.1947L180.218 79.7015Z" fill="#3F3D56"/>
<path d="M183.202 81.939C183.191 81.9869 183.168 82.0317 183.134 82.0696C183.101 82.1075 183.058 82.1373 183.01 82.1566L175.558 85.3403L167.344 86.9093L167.544 84.9338L183.202 81.939Z" fill="#3F3D56"/>
<path d="M168.417 73.8417C169.952 73.8417 171.197 72.6777 171.197 71.2419C171.197 69.8061 169.952 68.6421 168.417 68.6421C166.882 68.6421 165.637 69.8061 165.637 71.2419C165.637 72.6777 166.882 73.8417 168.417 73.8417Z" fill="#5DC8CD"/>
<path d="M127.185 118.198L126.716 114.959L126.346 112.387L125.807 108.657L125.433 106.083L124.93 102.581C124.921 102.524 124.897 102.471 124.86 102.426C124.822 102.38 124.772 102.345 124.716 102.324C124.659 102.302 124.598 102.294 124.537 102.302C124.476 102.309 124.419 102.332 124.37 102.367L122.197 103.939L120.516 105.152L118.081 106.912L116.402 108.13L113.967 109.89L112.289 111.104L111.041 112.006C110.991 112.04 110.953 112.086 110.93 112.139C110.907 112.192 110.899 112.249 110.906 112.305C110.914 112.362 110.938 112.416 110.976 112.461C111.013 112.507 111.063 112.542 111.12 112.563L126.711 118.543C126.759 118.563 126.811 118.572 126.864 118.568C126.916 118.565 126.967 118.551 127.012 118.525C127.028 118.518 127.043 118.51 127.057 118.5C127.104 118.465 127.141 118.418 127.164 118.366C127.188 118.313 127.195 118.255 127.185 118.198Z" fill="#5DC8CD"/>
<path d="M125.807 108.657L120.516 105.153L122.197 103.939L125.434 106.083L125.807 108.657Z" fill="#3F3D56"/>
<path d="M126.716 114.959L116.402 108.13L118.081 106.912L126.346 112.386L126.716 114.959Z" fill="#3F3D56"/>
<path d="M127.012 118.525C126.967 118.551 126.916 118.565 126.864 118.569C126.811 118.572 126.759 118.563 126.711 118.543L119.131 115.636L112.289 111.104L113.967 109.89L127.012 118.525Z" fill="#3F3D56"/>
<path d="M125.243 103.721C126.778 103.721 128.023 102.557 128.023 101.121C128.023 99.685 126.778 98.5211 125.243 98.5211C123.708 98.5211 122.464 99.685 122.464 101.121C122.464 102.557 123.708 103.721 125.243 103.721Z" fill="#5DC8CD"/>
<path d="M91.9399 108.704C87.9555 108.704 84.2696 106.285 81.561 101.893C78.9931 97.7287 77.5789 92.2206 77.5789 86.3829C77.5789 80.5452 78.9931 75.037 81.561 70.873C84.2696 66.4809 87.9555 64.0622 91.9399 64.0622C95.9242 64.0622 99.6101 66.4809 102.319 70.873C104.887 75.037 106.301 80.5452 106.301 86.3829C106.301 92.2205 104.887 97.7287 102.319 101.893C99.6101 106.285 95.9242 108.704 91.9399 108.704ZM91.9399 66.6959C89.0044 66.6959 86.1847 68.6467 84.0002 72.1889C81.6752 75.959 80.3947 80.9999 80.3947 86.3828C80.3947 91.7658 81.6752 96.8067 84.0002 100.577C86.1847 104.119 89.0044 106.07 91.9399 106.07C94.8753 106.07 97.695 104.119 99.8795 100.577C102.205 96.8067 103.485 91.7658 103.485 86.3828C103.485 80.9999 102.205 75.959 99.8795 72.1889C97.695 68.6467 94.8753 66.6959 91.9399 66.6959Z" fill="#5DC8CD"/>
<path d="M90.0383 111.339H95.5275C95.7209 111.315 95.8965 111.221 96.0171 111.077C96.1377 110.934 96.1937 110.752 96.1732 110.57L95.5275 107.495C95.5479 107.314 95.4919 107.132 95.3713 106.988C95.2508 106.845 95.0751 106.751 94.8817 106.727H90.6841C90.4907 106.751 90.315 106.845 90.1945 106.988C90.0739 107.132 90.0179 107.314 90.0383 107.495L89.3926 110.57C89.3721 110.752 89.4281 110.934 89.5487 111.077C89.6693 111.221 89.8449 111.315 90.0383 111.339Z" fill="#5DC8CD"/>
<path d="M88.0657 108.6C88.0661 108.333 88.1798 108.076 88.3821 107.887C88.5843 107.698 88.8585 107.592 89.1445 107.591H96.5416C96.8277 107.591 97.102 107.698 97.3044 107.887C97.5067 108.076 97.6203 108.333 97.6203 108.6C97.6203 108.868 97.5067 109.125 97.3044 109.314C97.102 109.503 96.8277 109.609 96.5416 109.609H89.1445C88.8585 109.609 88.5843 109.503 88.3821 109.313C88.1798 109.124 88.0661 108.868 88.0657 108.6Z" fill="#3F3D56"/>
<path d="M96.8548 108.352C97.9867 108.087 99.1683 108.069 100.309 108.298C101.45 108.527 102.519 108.998 103.435 109.674C104.336 110.366 105.053 111.245 105.527 112.242C106.001 113.238 106.22 114.325 106.167 115.415C105.942 120.125 100.872 122.656 97.3378 125.189C93.1616 128.183 89.2415 131.637 86.4117 135.818C83.6095 139.959 81.852 144.866 82.2592 149.809C82.6113 154.083 84.6825 158.321 88.2344 161.087C88.6821 161.434 89.1521 161.754 89.6418 162.046C90.1408 162.346 89.6777 163.095 89.1751 162.793C85.2834 160.453 82.7089 156.553 81.7339 152.362C80.649 147.7 81.6155 142.847 83.7477 138.567C85.9626 134.121 89.4467 130.342 93.3616 127.124C95.3035 125.527 97.3662 124.078 99.4552 122.657C101.292 121.407 103.218 120.061 104.359 118.179C104.923 117.256 105.225 116.214 105.238 115.152C105.25 114.089 104.972 113.041 104.429 112.107C103.863 111.168 103.041 110.385 102.048 109.838C101.054 109.292 99.923 109.001 98.7701 108.995C98.207 108.99 97.6458 109.054 97.1006 109.185C96.5238 109.323 96.2777 108.489 96.8548 108.352H96.8548Z" fill="#3F3D56"/>
</g>
<defs>
<clipPath id="clip0">
<rect width="319" height="218" fill="white"/>
</clipPath>
</defs>
</svg>
