<?xml version="1.0" encoding="UTF-8" standalone="no"?>
<svg
   xmlns:dc="http://purl.org/dc/elements/1.1/"
   xmlns:cc="http://creativecommons.org/ns#"
   xmlns:rdf="http://www.w3.org/1999/02/22-rdf-syntax-ns#"
   xmlns:svg="http://www.w3.org/2000/svg"
   xmlns="http://www.w3.org/2000/svg"
   xmlns:sodipodi="http://sodipodi.sourceforge.net/DTD/sodipodi-0.dtd"
   xmlns:inkscape="http://www.inkscape.org/namespaces/inkscape"
   role="img"
   viewBox="0 0 24 24"
   version="1.1"
   id="svg982"
   sodipodi:docname="facebook.svg"
   inkscape:version="1.0 (b51213c273, 2020-08-10)">
  <metadata
     id="metadata988">
    <rdf:RDF>
      <cc:Work
         rdf:about="">
        <dc:format>image/svg+xml</dc:format>
        <dc:type
           rdf:resource="http://purl.org/dc/dcmitype/StillImage" />
      </cc:Work>
    </rdf:RDF>
  </metadata>
  <defs
     id="defs986" />
  <sodipodi:namedview
     pagecolor="#ffffff"
     bordercolor="#666666"
     borderopacity="1"
     objecttolerance="10"
     gridtolerance="10"
     guidetolerance="10"
     inkscape:pageopacity="0"
     inkscape:pageshadow="2"
     inkscape:window-width="1920"
     inkscape:window-height="1005"
     id="namedview984"
     showgrid="false"
     inkscape:zoom="33.166667"
     inkscape:cx="9.6939662"
     inkscape:cy="12"
     inkscape:window-x="0"
     inkscape:window-y="40"
     inkscape:window-maximized="1"
     inkscape:current-layer="svg982"
     inkscape:document-rotation="0" />
  <title
     id="title978">Facebook icon</title>
  <ellipse
     style="fill:#ffffff;fill-opacity:1;stroke-width:0.449764"
     id="path860"
     cx="12.945387"
     cy="13.024234"
     rx="7.9521179"
     ry="7.8166118" />
  <path
     style="fill:#ffffff;stroke-width:0.0135607;fill-opacity:1"
     d="m 23.762647,14.479239 c -0.984766,4.770099 -4.78054,8.493302 -9.556212,9.373506 -0.801105,0.147651 -1.216036,0.182365 -2.18593,0.182876 -0.970182,5.12e-4 -1.374424,-0.03331 -2.1859313,-0.182876 -4.056205,-0.747599 -7.445716,-3.543578 -8.96922016,-7.398632 -0.380435,-0.962649 -0.622338,-1.932886 -0.759247,-3.045226 -0.07579999,-0.615891 -0.07579999,-2.067526 0,-2.683417 0.179409,-1.4576486 0.550637,-2.7163886 1.16930816,-3.9648256 1.007606,-2.0332849 2.600822,-3.7720529 4.526107,-4.9396029 0.47106,-0.285665 1.459864,-0.7672993 1.982801,-0.9657974 2.7660023,-1.049932 5.9135383,-1.021953 8.6633323,0.07701 3.754853,1.5006374 6.507355,4.7876664 7.316429,8.7372553 0.04982,0.24323 0.09059,0.4582146 0.09059,0.4777426 0,0.02707 -0.992257,0.0355 -4.17588,0.0355 H 15.502915 V 8.7807414 c 0,-0.860195 -0.01101,-1.40201 -0.02849,-1.40201 -0.01567,0 -0.781021,-0.115326 -1.700778,-0.256281 -0.919757,-0.140955 -1.69387,-0.256282 -1.720251,-0.256282 -0.04327,0 -0.04796,0.162432 -0.04796,1.660263 v 1.6602636 l -1.334171,-0.01178 c -1.4061433,-0.01242 -1.4463933,-0.01609 -1.7864333,-0.16296 -0.206311,-0.08911 -0.460936,-0.2825982 -0.583856,-0.4436692 -0.152276,-0.199541 -0.227948,-0.352698 -0.309376,-0.626167 -0.06068,-0.203786 -0.06706,-0.302584 -0.07909,-1.224189 l -0.01309,-1.002512 h -1.486246 -1.486239 l -0.03326,0.233668 c -0.172073,1.208735 -0.235601,2.539372 -0.152984,3.2043092 0.244793,1.970191 1.448088,3.295221 3.337632,3.675295 0.530145,0.106636 0.84834,0.122909 2.4033053,0.122909 h 1.523802 v 1.522613 1.522614 h 1.748743 1.748744 v -1.522614 -1.522613 h 4.175879 c 3.957858,0 4.175752,0.0028 4.173437,0.05276 -0.0013,0.02902 -0.04166,0.242714 -0.08959,0.474875 z"
     id="path858" />
  <path
     d="M23.9981 11.9991C23.9981 5.37216 18.626 0 11.9991 0C5.37216 0 0 5.37216 0 11.9991C0 17.9882 4.38789 22.9522 10.1242 23.8524V15.4676H7.07758V11.9991H10.1242V9.35553C10.1242 6.34826 11.9156 4.68714 14.6564 4.68714C15.9692 4.68714 17.3424 4.92149 17.3424 4.92149V7.87439H15.8294C14.3388 7.87439 13.8739 8.79933 13.8739 9.74824V11.9991H17.2018L16.6698 15.4676H13.8739V23.8524C19.6103 22.9522 23.9981 17.9882 23.9981 11.9991Z"
     id="path980"
     style="fill:#4267b2;fill-opacity:1" />
</svg>
