<svg width="1100" height="800" viewBox="0 0 268 145" fill="none" xmlns="http://www.w3.org/2000/svg">
<g clip-path="url(#clip0)">
<path d="M143.16 30.8518C152.839 30.8518 160.686 25.5333 160.686 18.9725C160.686 12.4117 152.839 7.09314 143.16 7.09314C133.48 7.09314 125.634 12.4117 125.634 18.9725C125.634 25.5333 133.48 30.8518 143.16 30.8518Z" fill="#FF6584"/>
<path d="M90.3887 76.1444C90.3887 99.0883 70.2653 107.099 45.442 107.099C20.6186 107.099 0.495239 99.0883 0.495239 76.1444C0.495239 53.2005 45.442 24.0123 45.442 24.0123C45.442 24.0123 90.3887 53.2005 90.3887 76.1444Z" fill="#F2F2F2"/>
<path d="M43.8048 103.59L44.2648 84.3879L63.4222 60.6323L44.3371 81.3755L44.5439 72.7416L57.7473 55.5546L44.5986 70.4567L44.9711 54.9282L59.1092 41.2452L45.0294 52.4864L45.2619 24.0123L43.8007 61.7066L43.9206 60.1517L29.5462 45.2381L43.6903 63.1368L42.3509 80.4795L42.3109 80.0192L25.7397 64.3249L42.2608 81.6454L42.0932 83.8143L42.0634 83.847L42.0771 84.025L38.6789 128.025H43.219L43.7637 105.298L60.2443 88.0201L43.8048 103.59Z" fill="#3F3D56"/>
<path d="M223.583 64.1073C223.583 92.1373 198.999 101.924 168.672 101.924C138.346 101.924 113.762 92.1373 113.762 64.1073C113.762 36.0774 168.672 0.418823 168.672 0.418823C168.672 0.418823 223.583 36.0774 223.583 64.1073Z" fill="#F2F2F2"/>
<path d="M166.672 97.6367L167.234 74.1781L190.639 45.1565L167.323 70.4981L167.576 59.9502L183.706 38.9534L167.642 57.1589L168.097 38.1879L185.37 21.4718L168.168 35.2047L168.453 0.418823L166.667 46.4691L166.814 44.5694L149.253 26.35L166.533 48.2161L164.896 69.4033L164.848 68.8411L144.603 49.6678L164.786 70.8277L164.581 73.4774L164.545 73.5173L164.562 73.7348L160.41 127.489H165.957L166.622 99.7237L186.756 78.6156L166.672 97.6367Z" fill="#3F3D56"/>
<path d="M110.024 129.599C156.607 129.599 194.369 128.685 194.369 127.557C194.369 126.43 156.607 125.515 110.024 125.515C63.4423 125.515 25.68 126.43 25.68 127.557C25.68 128.685 63.4423 129.599 110.024 129.599Z" fill="#3F3D56"/>
<path d="M228.6 144.077C250.076 144.077 267.486 142.955 267.486 141.571C267.486 140.187 250.076 139.065 228.6 139.065C207.123 139.065 189.714 140.187 189.714 141.571C189.714 142.955 207.123 144.077 228.6 144.077Z" fill="#3F3D56"/>
<path d="M114.954 64.8193H105.095V127.557H114.954V64.8193Z" fill="#2F2E41"/>
<path d="M155.209 79.1118H94.6891V67.6036H155.209L172.735 73.3577L155.209 79.1118Z" fill="#3F3D56"/>
<path opacity="0.1" d="M155.209 78.1837H94.6891V79.1118H155.209L172.735 73.3577L171.322 72.8937L155.209 78.1837Z" fill="black"/>
<path d="M65.1138 94.3322H125.634V82.8241H65.1138L47.5876 88.5782L65.1138 94.3322Z" fill="#3F3D56"/>
<path opacity="0.1" d="M49.001 88.1141L47.5876 88.5782L65.1138 94.3322H125.634V93.4042H65.1138L49.001 88.1141Z" fill="black"/>
<path d="M139.052 69.8309H128.646V76.8843H139.052V69.8309Z" fill="#5DC8CD"/>
<path d="M86.7476 92.1048C89.6211 92.1048 91.9506 90.5258 91.9506 88.5781C91.9506 86.6303 89.6211 85.0514 86.7476 85.0514C83.874 85.0514 81.5445 86.6303 81.5445 88.5781C81.5445 90.5258 83.874 92.1048 86.7476 92.1048Z" fill="#5DC8CD"/>
<path d="M110.024 75.0282C111.688 75.0282 113.037 74.1141 113.037 72.9865C113.037 71.8588 111.688 70.9447 110.024 70.9447C108.361 70.9447 107.012 71.8588 107.012 72.9865C107.012 74.1141 108.361 75.0282 110.024 75.0282Z" fill="#2F2E41"/>
<path d="M110.024 90.2487C111.688 90.2487 113.037 89.3346 113.037 88.2069C113.037 87.0793 111.688 86.1652 110.024 86.1652C108.361 86.1652 107.012 87.0793 107.012 88.2069C107.012 89.3346 108.361 90.2487 110.024 90.2487Z" fill="#2F2E41"/>
<path d="M89.7599 120.566C89.7599 124.737 86.1023 126.193 81.59 126.193C81.4855 126.193 81.3811 126.192 81.2769 126.19C81.0679 126.187 80.8608 126.181 80.6562 126.171C76.584 125.976 73.4201 124.445 73.4201 120.566C73.4201 116.552 80.9877 111.487 81.5562 111.112L81.5572 111.112C81.5791 111.097 81.59 111.09 81.59 111.09C81.59 111.09 89.7599 116.396 89.7599 120.566Z" fill="#5DC8CD"/>
<path d="M81.2924 125.555L84.2805 122.725L81.2849 125.866L81.2769 126.191C81.0679 126.187 80.8608 126.181 80.6562 126.171L80.9783 121.999L80.9758 121.966L80.9813 121.96L81.0116 121.566L78.0086 118.418L81.0211 121.271L81.0281 121.354L81.2715 118.202L78.7005 114.948L81.3028 117.648L81.5562 111.112L81.5572 111.09V111.112L81.5149 116.266L84.0744 114.223L81.5044 116.71L81.4367 119.532L83.8265 116.824L81.4268 119.948L81.3889 121.517L84.8584 117.747L81.376 122.065L81.2924 125.555Z" fill="#3F3D56"/>
<path d="M216.014 137.008C216.014 137.008 212.136 139.221 210.096 139.082C208.055 138.944 204.177 138.944 205.81 140.466C207.443 141.987 214.177 142.817 217.034 142.955C219.891 143.094 226.217 143.232 225.809 142.402C225.401 141.572 224.993 137.699 223.36 137.423C221.728 137.146 216.014 137.008 216.014 137.008Z" fill="#575A89"/>
<path d="M238.268 134.835C238.268 134.835 235.411 137.673 233.39 137.911C231.37 138.15 227.635 138.856 229.811 140.024C231.987 141.192 238.802 140.765 241.609 140.378C244.416 139.991 250.564 138.971 249.842 138.246C249.12 137.521 247.191 133.865 245.509 133.896C243.827 133.927 238.268 134.835 238.268 134.835Z" fill="#575A89"/>
<path d="M213.742 94.2464C213.742 94.2464 211.116 106.438 211.728 108.651C212.34 110.865 212.749 114.323 212.749 114.323C212.749 114.323 212.34 117.227 212.749 118.611C213.157 119.994 215.606 133.135 215.606 133.411C215.606 133.688 215.197 134.518 215.606 135.209C216.014 135.901 216.83 135.348 215.606 136.454C214.381 137.561 215.197 137.838 215.402 137.838C215.606 137.838 223.564 138.391 223.973 137.838C224.381 137.284 223.769 137.146 223.973 136.454C224.177 135.763 224.381 135.624 224.789 135.486C225.197 135.348 226.013 135.624 225.401 134.933C224.789 134.241 223.36 133.411 223.769 132.996C224.177 132.581 223.564 129.538 223.564 129.538C223.564 129.538 223.156 122.76 222.952 118.611C222.748 114.461 224.789 110.173 224.789 110.173C225.043 113.568 226.904 116.818 230.095 119.441C235.401 123.729 238.054 131.751 238.054 131.751C238.054 131.751 239.278 132.996 238.666 134.103C238.054 135.209 236.217 134.518 238.054 135.209C239.89 135.901 246.217 134.933 246.829 134.518C247.441 134.103 246.013 133.55 246.421 132.443C246.829 131.336 248.461 131.613 247.033 131.06C245.604 130.506 245.196 130.645 245.196 130.091C245.196 129.538 241.523 117.504 235.809 114.046L235.401 101.459C235.401 101.459 240.503 92.606 235.197 91.7761C229.891 90.9461 213.742 94.2464 213.742 94.2464Z" fill="#2F2E41"/>
<path d="M217.442 61.4834C217.442 61.4834 220.911 67.293 220.095 68.1229C219.279 68.9528 230.095 65.3564 230.095 65.3564C230.095 65.3564 226.626 59.5469 226.626 58.8553C226.626 58.1637 217.442 61.4834 217.442 61.4834Z" fill="#A0616A"/>
<path d="M219.993 62.9357C224.163 62.9357 227.544 60.6443 227.544 57.8178C227.544 54.9912 224.163 52.6998 219.993 52.6998C215.823 52.6998 212.442 54.9912 212.442 57.8178C212.442 60.6443 215.823 62.9357 219.993 62.9357Z" fill="#A0616A"/>
<path d="M230.095 63.0049C230.095 63.0049 224.789 62.59 222.136 64.8031C219.483 67.0163 219.075 67.5696 219.075 67.5696C219.075 67.5696 212.749 74.4857 213.973 77.9438C214.271 78.256 214.544 78.5793 214.789 78.9121C215.197 79.4653 215.197 87.2114 214.789 88.4563C214.381 89.7012 213.973 90.1162 214.381 91.9144C214.789 93.7126 211.116 96.6174 215.401 97.1707C219.687 97.7239 222.952 97.309 224.381 96.0641C225.809 94.8192 224.585 93.9892 229.074 93.9892C233.564 93.9892 236.421 91.9144 236.421 91.9144C236.421 91.9144 234.176 90.2545 234.993 89.9779C235.809 89.7012 234.993 89.0096 234.584 88.318C234.176 87.6264 234.176 87.0731 234.788 87.0731C235.401 87.0731 234.993 86.7965 234.584 86.1048C234.176 85.4132 241.727 73.5175 237.237 70.0594C232.748 66.6013 230.503 64.6648 230.503 64.6648C230.503 64.6648 231.319 62.59 230.095 63.0049Z" fill="#5DC8CD"/>
<path d="M218.463 76.1456V82.2318L211.932 96.894C211.932 96.894 207.647 104.502 211.932 104.502C216.218 104.502 215.988 97.2405 215.988 97.2405L225.197 86.2432C225.197 86.2432 228.87 77.5288 228.462 76.8372C228.054 76.1456 218.463 76.1456 218.463 76.1456Z" fill="#A0616A"/>
<path d="M221.932 67.1546C221.932 67.1546 215.81 68.8144 217.442 73.2408C219.075 77.6671 217.442 77.5288 217.442 77.5288C217.442 77.5288 225.809 76.9755 228.462 78.2204L229.074 76.5605C229.074 76.5605 231.523 67.0162 221.932 67.1546Z" fill="#5DC8CD"/>
<path d="M217.415 53.9757C216.944 54.089 216.438 54.1211 215.944 54.069C215.45 54.0169 214.983 53.8822 214.585 53.6772C213.816 53.2476 213.489 52.455 213.942 51.8531C214.333 51.3333 215.168 51.0481 215.97 50.8355C217.738 50.3667 219.6 50.0817 221.494 49.9901C222.396 49.9465 223.344 49.9534 224.15 50.233C224.549 50.3713 224.895 50.5709 225.29 50.7142C226.016 50.9776 226.86 51.0362 227.645 51.2057C228.447 51.3832 229.184 51.6754 229.806 52.0627C230.427 52.4499 230.919 52.9231 231.247 53.4503C231.461 53.8083 231.61 54.1823 231.691 54.5645C231.926 55.6106 231.762 56.6801 231.215 57.6712C230.345 59.2411 228.52 60.6136 228.417 62.2891C227.301 61.74 226.887 60.7488 225.992 60.0371C225.326 59.511 224.417 59.1535 223.412 59.023C223.134 59.0115 222.867 58.9455 222.644 58.8329C222.488 58.7068 222.39 58.5524 222.363 58.3889L221.599 55.9436C221.443 55.446 221.247 54.9034 220.643 54.601C220.267 54.4381 219.841 54.3363 219.398 54.3036C218.344 54.1788 217.277 54.1128 216.207 54.1064" fill="#2F2E41"/>
</g>
<defs>
<clipPath id="clip0">
<rect width="266.99" height="143.658" fill="white" transform="translate(0.495239 0.418823)"/>
</clipPath>
</defs>
</svg>
